<?xml version="1.0" encoding="UTF-8" standalone="no"?><!DOCTYPE svg PUBLIC "-//W3C//DTD SVG 1.1//EN" "http://www.w3.org/Graphics/SVG/1.1/DTD/svg11.dtd"><svg width="100%" height="100%" viewBox="0 0 53 53" version="1.1" xmlns="http://www.w3.org/2000/svg" xmlns:xlink="http://www.w3.org/1999/xlink" xml:space="preserve" xmlns:serif="http://www.serif.com/" style="fill-rule:evenodd;clip-rule:evenodd;stroke-linejoin:round;stroke-miterlimit:2;"><ellipse id="Twitter" cx="26.256" cy="26.22" rx="26.256" ry="26.22" style="fill:#c70829;"/><clipPath id="_clip1"><ellipse id="Twitter1" serif:id="Twitter" cx="26.256" cy="26.22" rx="26.256" ry="26.22"/></clipPath><g clip-path="url(#_clip1)"><path id="Twitter-Icon" serif:id="Twitter Icon" d="M36.692,21.694c0.01,0.231 0.014,0.461 0.014,0.695c0,7.11 -5.415,15.309 -15.316,15.309c-3.041,0 -5.869,-0.889 -8.252,-2.419c0.421,0.051 0.849,0.076 1.283,0.076c2.522,0 4.844,-0.859 6.687,-2.304c-2.355,-0.041 -4.344,-1.598 -5.03,-3.735c0.329,0.064 0.668,0.098 1.015,0.098c0.488,0 0.964,-0.067 1.418,-0.189c-2.464,-0.496 -4.32,-2.67 -4.32,-5.276l0,-0.068c0.726,0.401 1.557,0.645 2.44,0.673c-1.446,-0.967 -2.396,-2.613 -2.396,-4.478c0,-0.988 0.264,-1.91 0.729,-2.707c2.655,3.256 6.623,5.396 11.097,5.624c-0.092,-0.394 -0.14,-0.808 -0.14,-1.229c0,-2.971 2.41,-5.38 5.384,-5.38c1.548,0 2.946,0.655 3.927,1.7c1.229,-0.241 2.38,-0.689 3.422,-1.306c-0.404,1.255 -1.256,2.31 -2.37,2.975c1.09,-0.125 2.129,-0.417 3.093,-0.844c-0.723,1.078 -1.633,2.024 -2.685,2.785Z" style="fill:#fff;"/></g></svg>