<?xml version="1.0" encoding="UTF-8" standalone="no"?><!DOCTYPE svg PUBLIC "-//W3C//DTD SVG 1.1//EN" "http://www.w3.org/Graphics/SVG/1.1/DTD/svg11.dtd"><svg width="100%" height="100%" viewBox="0 0 1920 1080" version="1.1" xmlns="http://www.w3.org/2000/svg" xmlns:xlink="http://www.w3.org/1999/xlink" xml:space="preserve" xmlns:serif="http://www.serif.com/" style="fill-rule:evenodd;clip-rule:evenodd;stroke-linejoin:round;stroke-miterlimit:2;"><path d="M608.243,452.851l24,0l0,24l-24,0l0,-24Zm0,0l24,0l0,24l-24,0l0,-24Z" style="fill:none;fill-rule:nonzero;"/><path d="M619.123,474.791l5.53,-5.54c0.37,-0.37 0.58,-0.88 0.58,-1.41l0,-9.99c0,-1.1 -0.9,-2 -2,-2l-8.99,0c-0.8,0 -1.52,0.48 -1.83,1.21l-3.26,7.61c-0.85,1.98 0.6,4.18 2.75,4.18l5.65,0l-0.95,4.58c-0.1,0.5 0.05,1.01 0.41,1.37c0.59,0.58 1.53,0.58 2.11,-0.01Zm10.12,-18.94c-1.1,0 -2,0.9 -2,2l0,8c0,1.1 0.9,2 2,2c1.1,0 2,-0.9 2,-2l0,-8c0,-1.1 -0.9,-2 -2,-2Z" style="fill:#fff;fill-rule:nonzero;"/><path d="M587.514,424.824l24,0l0,24l-24,0l0,-24Zm0,0l24,0l0,24l-24,0l0,-24Z" style="fill:none;fill-rule:nonzero;"/><path d="M600.634,426.884l-5.54,5.54c-0.37,0.37 -0.58,0.88 -0.58,1.41l0,9.99c0,1.1 0.9,2 2,2l9,0c0.8,0 1.52,-0.48 1.84,-1.21l3.26,-7.61c0.84,-1.98 -0.61,-4.18 -2.76,-4.18l-5.65,0l0.95,-4.58c0.1,-0.5 -0.05,-1.01 -0.41,-1.37c-0.59,-0.58 -1.53,-0.58 -2.11,0.01Zm-10.12,18.94c1.1,0 2,-0.9 2,-2l0,-8c0,-1.1 -0.9,-2 -2,-2c-1.1,0 -2,0.9 -2,2l0,8c0,1.1 0.9,2 2,2Z" style="fill:#03bd5b;fill-rule:nonzero;"/></svg>