<?xml version="1.0" encoding="UTF-8" standalone="no"?><!DOCTYPE svg PUBLIC "-//W3C//DTD SVG 1.1//EN" "http://www.w3.org/Graphics/SVG/1.1/DTD/svg11.dtd"><svg width="100%" height="100%" viewBox="0 0 42 44" version="1.1" xmlns="http://www.w3.org/2000/svg" xmlns:xlink="http://www.w3.org/1999/xlink" xml:space="preserve" xmlns:serif="http://www.serif.com/" style="fill-rule:evenodd;clip-rule:evenodd;stroke-linejoin:round;stroke-miterlimit:2;"><path id="Profile" d="M38.812,43.325l-32.494,0c-1.495,0 -2.708,-1.212 -2.708,-2.708l0,-4.512l1.806,0c1.994,0 3.61,-1.617 3.61,-3.611c0,-1.994 -1.616,-3.61 -3.61,-3.61l-1.806,0l0,-3.611l1.806,0c1.994,0 3.61,-1.617 3.61,-3.61c0,-1.994 -1.616,-3.611 -3.61,-3.611l-1.806,0l0,-3.61l1.806,0c1.994,0 3.61,-1.617 3.61,-3.611c0,-1.994 -1.616,-3.61 -3.61,-3.61l-1.806,0l0,-4.513c0,-1.496 1.213,-2.708 2.708,-2.708l32.494,0c1.496,0 2.708,1.212 2.708,2.708l0,37.909c0,1.496 -1.212,2.708 -2.708,2.708Zm-13.539,-32.494c-3.155,0 -5.416,2.565 -5.416,6.372c0,4.09 2.418,8.07 5.416,8.07c2.998,0 5.416,-3.98 5.416,-8.07c0,-3.807 -2.261,-6.372 -5.416,-6.372Zm5.239,12.916c-1.315,1.994 -3.171,3.331 -5.239,3.331c-2.068,0 -3.925,-1.337 -5.239,-3.331c-3.253,1.469 -5.592,4.004 -5.592,5.823c0,1.375 1.309,2.195 3.607,2.577c1.64,0.274 3.569,0.347 7.224,0.347c3.655,0 5.584,-0.073 7.224,-0.347c2.298,-0.382 3.607,-1.202 3.607,-2.577c0,-1.819 -2.339,-4.354 -5.592,-5.823Zm-23.291,-12.916c0,0.997 -0.808,1.806 -1.805,1.806l-3.611,0c-0.997,0 -1.805,-0.809 -1.805,-1.806c0,-0.997 0.808,-1.805 1.805,-1.805l3.611,0c0.997,0 1.805,0.808 1.805,1.805Zm-5.416,9.027l3.611,0c0.997,0 1.805,0.808 1.805,1.805c0,0.997 -0.808,1.804 -1.805,1.804l-3.611,0c-0.997,0 -1.805,-0.807 -1.805,-1.804c0,-0.997 0.808,-1.805 1.805,-1.805Zm0,10.831l3.611,0c0.997,0 1.805,0.808 1.805,1.805c0,0.997 -0.808,1.805 -1.805,1.805l-3.611,0c-0.997,0 -1.805,-0.808 -1.805,-1.805c0,-0.997 0.808,-1.805 1.805,-1.805Z" style="fill:#fff;"/></svg>