<?xml version="1.0" encoding="UTF-8" standalone="no"?><!DOCTYPE svg PUBLIC "-//W3C//DTD SVG 1.1//EN" "http://www.w3.org/Graphics/SVG/1.1/DTD/svg11.dtd"><svg width="100%" height="100%" viewBox="0 0 259 115" version="1.1" xmlns="http://www.w3.org/2000/svg" xmlns:xlink="http://www.w3.org/1999/xlink" xml:space="preserve" xmlns:serif="http://www.serif.com/" style="fill-rule:evenodd;clip-rule:evenodd;stroke-linejoin:round;stroke-miterlimit:2;"><g><path d="M17.469,31.797l13.373,42.627l13.29,-42.627l17.469,0l-20.227,59.177l-21.147,0l-20.227,-59.177l17.469,0Z" style="fill:#ececec;fill-rule:nonzero;"/><clipPath id="_clip1"><rect x="65.111" y="42.913" width="19.224" height="48.06"/></clipPath><g clip-path="url(#_clip1)"><path d="M65.111,31.128c0,-2.452 0.892,-4.472 2.675,-6.06c1.783,-1.588 4.124,-2.382 7.021,-2.382c2.898,0 5.21,0.794 6.938,2.382c1.727,1.588 2.591,3.608 2.591,6.06c0,2.34 -0.878,4.291 -2.633,5.851c-1.755,1.56 -4.054,2.34 -6.896,2.34c-2.897,0 -5.238,-0.78 -7.021,-2.34c-1.783,-1.56 -2.675,-3.511 -2.675,-5.851Zm17.804,12.956l0,46.89l-16.466,0l0,-46.89l16.466,0Z" style="fill:#ececec;fill-rule:nonzero;"/></g><clipPath id="_clip2"><rect x="90.688" y="42.913" width="19.224" height="48.06"/></clipPath><g clip-path="url(#_clip2)"><path d="M90.688,31.128c0,-2.452 0.892,-4.472 2.675,-6.06c1.783,-1.588 4.123,-2.382 7.021,-2.382c2.897,0 5.21,0.794 6.937,2.382c1.727,1.588 2.591,3.608 2.591,6.06c0,2.34 -0.877,4.291 -2.633,5.851c-1.755,1.56 -4.054,2.34 -6.895,2.34c-2.898,0 -5.238,-0.78 -7.021,-2.34c-1.783,-1.56 -2.675,-3.511 -2.675,-5.851Zm17.803,12.956l0,46.89l-16.466,0l0,-46.89l16.466,0Z" style="fill:#ececec;fill-rule:nonzero;"/></g><path d="M146.856,90.974l-12.788,-19.392l0,19.392l-16.466,0l0,-61.852l16.466,0l0,33.183l12.872,-18.221l19.14,0l-18.221,23.486l18.723,23.404l-19.726,0Z" style="fill:#ececec;fill-rule:nonzero;"/><path d="M188.564,43.498c3.288,0 6.144,0.711 8.567,2.132c2.424,1.421 4.221,3.385 5.392,5.892l0,-7.438l16.382,0l0,46.89l-16.382,0l0,-7.439c-1.171,2.507 -2.968,4.472 -5.392,5.892c-2.423,1.421 -5.279,2.132 -8.567,2.132c-3.733,0 -7.104,-0.961 -10.113,-2.884c-3.009,-1.922 -5.378,-4.708 -7.105,-8.358c-1.727,-3.65 -2.591,-7.927 -2.591,-12.83c0,-4.904 0.864,-9.166 2.591,-12.788c1.727,-3.622 4.096,-6.395 7.105,-8.317c3.009,-1.922 6.38,-2.884 10.113,-2.884Zm5.433,14.377c-2.563,0 -4.639,0.85 -6.227,2.549c-1.588,1.7 -2.382,4.054 -2.382,7.063c0,3.065 0.794,5.447 2.382,7.146c1.588,1.7 3.664,2.55 6.227,2.55c2.452,0 4.486,-0.864 6.102,-2.592c1.616,-1.727 2.424,-4.095 2.424,-7.104c0,-2.953 -0.808,-5.294 -2.424,-7.021c-1.616,-1.728 -3.65,-2.591 -6.102,-2.591Z" style="fill:#ececec;fill-rule:nonzero;"/></g><text x="216.99px" y="46.344px" style="font-family:'Poppins-Bold', 'Poppins';font-weight:700;font-size:76.602px;fill:#c70829;">+</text><text x="46.875px" y="114.006px" style="font-family:'Poppins-ExtraLight', 'Poppins';font-weight:275;font-size:16.574px;fill:#fff;">Cinémas &amp; Séries</text></svg>