<?xml version="1.0" encoding="UTF-8" standalone="no"?><!DOCTYPE svg PUBLIC "-//W3C//DTD SVG 1.1//EN" "http://www.w3.org/Graphics/SVG/1.1/DTD/svg11.dtd"><svg width="100%" height="100%" viewBox="0 0 1456 517" version="1.1" xmlns="http://www.w3.org/2000/svg" xmlns:xlink="http://www.w3.org/1999/xlink" xml:space="preserve" xmlns:serif="http://www.serif.com/" style="fill-rule:evenodd;clip-rule:evenodd;stroke-linejoin:round;stroke-miterlimit:2;"><g><path d="M90.45,163.949l85.508,262.948l85.508,-262.948l90.451,0l-121.59,349.445l-109.232,0l-121.095,-349.445l90.45,0Z" style="fill:#fff;fill-rule:nonzero;"/><clipPath id="_clip1"><rect x="376.63" y="234.134" width="100.83" height="279.26"/></clipPath><g clip-path="url(#_clip1)"><path d="M376.63,159.994c0,-12.85 4.613,-23.477 13.839,-31.88c9.226,-8.402 21.418,-12.603 36.576,-12.603c15.157,0 27.349,4.201 36.575,12.603c9.227,8.403 13.84,19.03 13.84,31.88c0,12.522 -4.613,22.984 -13.84,31.386c-9.226,8.403 -21.418,12.604 -36.575,12.604c-15.158,0 -27.35,-4.201 -36.576,-12.604c-9.226,-8.402 -13.839,-18.864 -13.839,-31.386Zm92.427,77.6l0,275.8l-84.519,0l0,-275.8l84.519,0Z" style="fill:#fff;fill-rule:nonzero;"/></g><clipPath id="_clip2"><rect x="519.472" y="230.674" width="100.83" height="282.719"/></clipPath><g clip-path="url(#_clip2)"><path d="M519.472,159.994c0,-12.85 4.613,-23.477 13.84,-31.88c9.226,-8.402 21.418,-12.603 36.575,-12.603c15.158,0 27.35,4.201 36.576,12.603c9.226,8.403 13.839,19.03 13.839,31.88c0,12.522 -4.613,22.984 -13.839,31.386c-9.226,8.403 -21.418,12.604 -36.576,12.604c-15.157,0 -27.349,-4.201 -36.575,-12.604c-9.227,-8.402 -13.84,-18.864 -13.84,-31.386Zm92.428,77.6l0,275.8l-84.519,0l0,-275.8l84.519,0Z" style="fill:#fff;fill-rule:nonzero;"/></g><path d="M837.285,513.394l-82.543,-117.141l0,117.141l-84.519,0l0,-365.756l84.519,0l0,200.671l82.543,-110.715l99.347,0l-111.21,137.9l113.681,137.9l-101.818,0Z" style="fill:#fff;fill-rule:nonzero;"/><path d="M1074.53,234.134c21.088,0 39.211,4.778 54.369,14.334c15.157,9.556 26.361,22.571 33.61,39.047l0,-49.921l84.025,0l0,275.8l-84.025,0l0,-49.921c-7.249,16.475 -18.453,29.491 -33.61,39.047c-15.158,9.556 -33.281,14.334 -54.369,14.334c-22.737,0 -43.084,-5.684 -61.042,-17.053c-17.958,-11.368 -32.127,-27.761 -42.507,-49.179c-10.379,-21.418 -15.569,-46.461 -15.569,-75.128c0,-28.997 5.19,-54.122 15.569,-75.376c10.38,-21.253 24.549,-37.564 42.507,-48.932c17.958,-11.368 38.305,-17.052 61.042,-17.052Zm27.184,74.14c-18.123,0 -32.704,5.931 -43.742,17.793c-11.039,11.863 -16.558,28.338 -16.558,49.427c0,21.088 5.519,37.564 16.558,49.426c11.038,11.863 25.619,17.794 43.742,17.794c17.794,0 32.375,-6.096 43.743,-18.288c11.368,-12.192 17.052,-28.503 17.052,-48.932c0,-20.759 -5.684,-37.152 -17.052,-49.18c-11.368,-12.027 -25.949,-18.04 -43.743,-18.04Z" style="fill:#fff;fill-rule:nonzero;"/></g><text x="1213.05px" y="274.054px" style="font-family:'Poppins-Bold', 'Poppins';font-weight:700;font-size:452.983px;fill:#c70829;">+</text></svg>