<?xml version="1.0" encoding="UTF-8" standalone="no"?><!DOCTYPE svg PUBLIC "-//W3C//DTD SVG 1.1//EN" "http://www.w3.org/Graphics/SVG/1.1/DTD/svg11.dtd"><svg width="100%" height="100%" viewBox="0 0 1920 1080" version="1.1" xmlns="http://www.w3.org/2000/svg" xmlns:xlink="http://www.w3.org/1999/xlink" xml:space="preserve" xmlns:serif="http://www.serif.com/" style="fill-rule:evenodd;clip-rule:evenodd;stroke-linejoin:round;stroke-miterlimit:2;"><g><path d="M322.526,445.522l85.508,262.949l85.507,-262.949l90.451,0l-121.589,349.445l-109.233,0l-121.095,-349.445l90.451,0Z" style="fill:#fff;fill-rule:nonzero;"/><clipPath id="_clip1"><rect x="608.705" y="515.707" width="100.83" height="279.26"/></clipPath><g clip-path="url(#_clip1)"><path d="M608.705,441.568c0,-12.851 4.613,-23.478 13.84,-31.88c9.226,-8.403 21.418,-12.604 36.575,-12.604c15.158,0 27.35,4.201 36.576,12.604c9.226,8.402 13.839,19.029 13.839,31.88c0,12.521 -4.613,22.983 -13.839,31.385c-9.226,8.403 -21.418,12.604 -36.576,12.604c-15.157,0 -27.349,-4.201 -36.575,-12.604c-9.227,-8.402 -13.84,-18.864 -13.84,-31.385Zm92.428,77.599l0,275.8l-84.52,0l0,-275.8l84.52,0Z" style="fill:#fff;fill-rule:nonzero;"/></g><clipPath id="_clip2"><rect x="751.548" y="512.247" width="100.83" height="282.719"/></clipPath><g clip-path="url(#_clip2)"><path d="M751.548,441.568c0,-12.851 4.613,-23.478 13.839,-31.88c9.226,-8.403 21.418,-12.604 36.576,-12.604c15.157,0 27.349,4.201 36.575,12.604c9.227,8.402 13.84,19.029 13.84,31.88c0,12.521 -4.613,22.983 -13.84,31.385c-9.226,8.403 -21.418,12.604 -36.575,12.604c-15.158,0 -27.35,-4.201 -36.576,-12.604c-9.226,-8.402 -13.839,-18.864 -13.839,-31.385Zm92.427,77.599l0,275.8l-84.519,0l0,-275.8l84.519,0Z" style="fill:#fff;fill-rule:nonzero;"/></g><path d="M1069.36,794.967l-82.542,-117.141l0,117.141l-84.52,0l0,-365.756l84.52,0l0,200.671l82.542,-110.715l99.347,0l-111.209,137.9l113.68,137.9l-101.818,0Z" style="fill:#fff;fill-rule:nonzero;"/><path d="M1306.61,515.707c21.089,0 39.212,4.778 54.369,14.334c15.158,9.556 26.361,22.571 33.61,39.047l0,-49.921l84.025,0l0,275.8l-84.025,0l0,-49.921c-7.249,16.476 -18.452,29.491 -33.61,39.047c-15.157,9.556 -33.28,14.334 -54.369,14.334c-22.736,0 -43.083,-5.684 -61.042,-17.052c-17.958,-11.368 -32.127,-27.762 -42.506,-49.18c-10.38,-21.418 -15.57,-46.461 -15.57,-75.128c0,-28.997 5.19,-54.122 15.57,-75.375c10.379,-21.254 24.548,-37.564 42.506,-48.933c17.959,-11.368 38.306,-17.052 61.042,-17.052Zm27.185,74.14c-18.123,0 -32.704,5.931 -43.743,17.794c-11.038,11.862 -16.558,28.337 -16.558,49.426c0,21.089 5.52,37.564 16.558,49.427c11.039,11.862 25.62,17.793 43.743,17.793c17.793,0 32.374,-6.096 43.742,-18.288c11.368,-12.192 17.052,-28.502 17.052,-48.932c0,-20.759 -5.684,-37.152 -17.052,-49.179c-11.368,-12.027 -25.949,-18.041 -43.742,-18.041Z" style="fill:#fff;fill-rule:nonzero;"/></g><text x="1445.13px" y="555.628px" style="font-family:'Poppins-Bold', 'Poppins';font-weight:700;font-size:452.983px;fill:#c70829;">+</text></svg>