<?xml version="1.0" encoding="UTF-8" standalone="no"?><!DOCTYPE svg PUBLIC "-//W3C//DTD SVG 1.1//EN" "http://www.w3.org/Graphics/SVG/1.1/DTD/svg11.dtd"><svg width="100%" height="100%" viewBox="0 0 24 49" version="1.1" xmlns="http://www.w3.org/2000/svg" xmlns:xlink="http://www.w3.org/1999/xlink" xml:space="preserve" xmlns:serif="http://www.serif.com/" style="fill-rule:evenodd;clip-rule:evenodd;stroke-linejoin:round;stroke-miterlimit:2;"><g><rect x="0" y="0" width="23.419" height="48.648" style="fill:none;"/><path id="Star-Icon" serif:id="Star Icon" d="M11.188,2.503c0.08,-0.224 0.282,-0.368 0.521,-0.368c0.24,0 0.442,0.144 0.521,0.368l2.114,6.01c0.078,0.22 0.273,0.362 0.507,0.367l6.352,0.163c0.239,0.006 0.436,0.153 0.51,0.38c0.075,0.225 0.002,0.46 -0.187,0.606l-5.05,3.887c-0.184,0.141 -0.258,0.368 -0.192,0.59l1.809,6.122c0.068,0.228 -0.012,0.462 -0.206,0.601c-0.194,0.139 -0.441,0.142 -0.638,0.006l-5.225,-3.612c-0.193,-0.133 -0.436,-0.133 -0.629,0l-5.225,3.612c-0.197,0.136 -0.444,0.133 -0.638,-0.006c-0.194,-0.139 -0.274,-0.373 -0.207,-0.601l1.81,-6.122c0.066,-0.222 -0.008,-0.449 -0.192,-0.59l-5.051,-3.887c-0.188,-0.146 -0.261,-0.381 -0.187,-0.606c0.074,-0.227 0.272,-0.374 0.51,-0.38l6.352,-0.163c0.235,-0.005 0.43,-0.147 0.507,-0.367l2.114,-6.01Z" style="fill:#ff9a46;"/></g></svg>